#N canvas 813 34 833 917 10;
#N canvas 291 365 450 300 binaural256vs 0;
#X obj 201 67 inlet;
#X obj 53 70 inlet~;
#X obj 103 189 outlet~;
#X obj 326 188 outlet~;
#X obj 268 60 block~ 256;
#X obj 121 69 inlet;
#X obj 107 133 rwa_binauralrir~ 256 fr_pos3.txt;
#X connect 0 0 6 2;
#X connect 1 0 6 0;
#X connect 5 0 6 1;
#X connect 6 0 2 0;
#X connect 6 1 3 0;
#X restore 70 377 pd binaural256vs;
#X obj 70 498 throw~ out1;
#X obj 200 497 throw~ out2;
#X obj 34 13 r \$0-play;
#X obj 392 194 s \$0-playfinished;
#X obj 413 290 switch~;
#X obj 413 226 loadbang;
#X msg 413 258 0;
#X msg 112 115 1;
#X msg 450 161 0;
#X obj 392 94 delay 10;
#X obj 392 58 t b b;
#X obj 445 58 r \$0-fadeouttime;
#X obj 392 8 r \$0-end;
#X obj 469 94 s \$0-startfadeout;
#X obj 517 127 r \$0-free;
#X obj 517 160 t b b;
#X obj 549 188 s \$0-stopfades;
#X obj 392 129 t b b b b;
#N canvas 410 82 781 348 selectdamping 0;
#X obj 27 -126 r \$0-dampingfunction;
#X obj 27 -2 s \$0-lineardampingoff;
#X obj 27 -60 t b b;
#X obj 74 -31 s \$0-expdampingon;
#X obj 62 35 t b b;
#X obj 62 93 s \$0-lineardampingon;
#X obj 109 64 s \$0-expdampingoff;
#X obj 27 -91 route 1 2 0;
#X obj 443 56 s \$0-lineardampingoff;
#X obj 409 25 s \$0-expdampingoff;
#X obj 376 -5 t b b b;
#X msg 376 59 1;
#X obj 376 90 s \$0-distancescaling1;
#X connect 0 0 7 0;
#X connect 2 0 1 0;
#X connect 2 1 3 0;
#X connect 4 0 5 0;
#X connect 4 1 6 0;
#X connect 7 0 2 0;
#X connect 7 1 4 0;
#X connect 7 2 10 0;
#X connect 10 0 11 0;
#X connect 10 1 9 0;
#X connect 10 2 8 0;
#X connect 11 0 12 0;
#X restore 228 10 pd selectdamping;
#N canvas 920 150 711 611 calculatedamping 0;
#X obj 39 306 dbtorms;
#X obj 39 438 clip 0 1;
#X obj 40 219 + 1;
#X obj 39 277 expr (100 - $f1);
#X obj 40 9 receive \$0-distance1;
#X obj 39 470 s \$0-distancescaling1;
#X obj 40 190 line;
#X msg 40 161 \$1 10;
#X obj 40 249 expr abs($f2 * log10($f1));
#X obj 40 132 spigot;
#X obj 338 189 spigot;
#X obj 338 248 line;
#X msg 338 219 \$1 10;
#X obj 338 278 expr (1 / $f1);
#X msg 97 98 0;
#X msg 395 157 1;
#X msg 446 156 0;
#X msg 146 97 1;
#X obj 119 217 r \$0-dampingfactor;
#X obj 66 346 r \$0-dampingtrim;
#X obj 116 380 r \$0-dampingmax;
#X obj 77 408 r \$0-dampingmin;
#X obj 395 94 r \$0-lineardampingon;
#X obj 446 124 r \$0-lineardampingoff;
#X obj 146 67 r \$0-expdampingon;
#X obj 97 38 r \$0-expdampingoff;
#X obj 39 375 * 1;
#X connect 0 0 26 0;
#X connect 1 0 5 0;
#X connect 2 0 8 0;
#X connect 3 0 0 0;
#X connect 4 0 10 0;
#X connect 4 0 9 0;
#X connect 6 0 2 0;
#X connect 7 0 6 0;
#X connect 8 0 3 0;
#X connect 9 0 7 0;
#X connect 10 0 12 0;
#X connect 11 0 13 0;
#X connect 12 0 11 0;
#X connect 13 0 26 0;
#X connect 14 0 9 1;
#X connect 15 0 10 1;
#X connect 16 0 10 1;
#X connect 17 0 9 1;
#X connect 18 0 8 1;
#X connect 19 0 26 1;
#X connect 20 0 1 2;
#X connect 21 0 1 1;
#X connect 22 0 15 0;
#X connect 23 0 16 0;
#X connect 24 0 17 0;
#X connect 25 0 14 0;
#X connect 26 0 1 0;
#X restore 198 57 pd calculatedamping;
#N canvas 291 365 450 300 reverb256vs 0;
#X obj 53 70 inlet~;
#X obj 103 189 outlet~;
#X obj 326 188 outlet~;
#X obj 268 60 block~ 256;
#X obj 107 133 rwa_reverb~ 256 fr_pos3_tail.txt;
#X connect 0 0 4 0;
#X connect 4 0 1 0;
#X connect 4 1 2 0;
#X restore 14 322 pd reverb256vs;
#X msg 89 145 open cicerospeech.wav;
#X obj 67 204 readsf~;
#X obj 66 89 t b b b;
#X msg 67 171 start;
#X obj 70 424 *~ 1;
#X obj 179 421 *~ 1;
#X obj 205 377 r \$0-distancescaling1;
#X obj 124 323 r \$0-azimuth1;
#X obj 124 349 + 180;
#N canvas 118 59 1009 644 2chfadeinfadeout 0;
#X obj 555 -63 f 5000;
#X obj 618 -103 r \$0-fadeouttime;
#X obj 284 240 *~ 0;
#X obj 209 239 *~ 0;
#X text 360 165 fadein;
#X text 437 164 fadeout;
#X obj 313 35 r \$0-fadeintime;
#X obj 250 75 f 1000;
#X obj 209 278 outlet~;
#X obj 284 311 outlet~;
#X obj 42 -139 inlet~;
#X obj 141 -137 inlet~;
#X text 256 -176 bang to start fade;
#X msg 250 115 1 \$1;
#X msg 555 -23 0 \$1;
#X obj 250 164 line 0;
#X obj 250 -140 r \$0-startfadein;
#X obj 555 -144 r \$0-startfadeout;
#X obj 345 74 r \$0-stopfades;
#X msg 345 108 0;
#X msg 313 -39 0;
#X obj 250 -5 spigot;
#X obj 266 -72 r \$0-play;
#X msg 266 -39 1;
#X connect 0 0 14 0;
#X connect 1 0 0 1;
#X connect 2 0 9 0;
#X connect 3 0 8 0;
#X connect 6 0 7 1;
#X connect 7 0 13 0;
#X connect 10 0 3 0;
#X connect 11 0 2 0;
#X connect 13 0 15 0;
#X connect 14 0 15 0;
#X connect 15 0 2 1;
#X connect 15 0 3 1;
#X connect 16 0 21 0;
#X connect 17 0 0 0;
#X connect 17 0 20 0;
#X connect 18 0 19 0;
#X connect 19 0 15 0;
#X connect 20 0 21 1;
#X connect 21 0 7 0;
#X connect 22 0 23 0;
#X connect 23 0 21 1;
#X coords 0 644 1 643 200 60 0;
#X restore 70 463 pd 2chfadeinfadeout;
#X obj 34 61 s \$0-startfadein;
#X obj 34 37 t b b;
#X connect 0 0 26 0;
#X connect 0 1 27 0;
#X connect 3 0 33 0;
#X connect 6 0 7 0;
#X connect 7 0 5 0;
#X connect 8 0 5 0;
#X connect 10 0 18 0;
#X connect 11 0 10 0;
#X connect 11 1 14 0;
#X connect 12 0 10 1;
#X connect 13 0 11 0;
#X connect 15 0 16 0;
#X connect 16 0 7 0;
#X connect 16 1 17 0;
#X connect 18 0 4 0;
#X connect 18 1 7 0;
#X connect 18 2 9 0;
#X connect 21 0 26 0;
#X connect 21 1 27 0;
#X connect 22 0 23 0;
#X connect 23 0 0 0;
#X connect 23 0 21 0;
#X connect 23 1 24 0;
#X connect 24 0 25 0;
#X connect 24 1 22 0;
#X connect 24 2 8 0;
#X connect 25 0 23 0;
#X connect 26 0 31 0;
#X connect 27 0 31 1;
#X connect 29 0 30 0;
#X connect 30 0 0 1;
#X connect 31 0 1 0;
#X connect 31 1 2 0;
#X connect 33 0 32 0;
#X connect 33 1 24 0;
